<svg width="1538" height="181" viewBox="0 0 1538 181" fill="none" xmlns="http://www.w3.org/2000/svg">
<path d="M97.4 67C105.933 69.5333 112.467 73.6667 117 79.4C121.533 85.1333 123.8 92.2 123.8 100.6C123.8 113 119.067 122.667 109.6 129.6C100.267 136.533 86.8667 140 69.4 140H0.400001V-9.53674e-06H65.6C81.8667 -9.53674e-06 94.5333 3.13332 103.6 9.39999C112.667 15.6667 117.2 24.6 117.2 36.2C117.2 43.1333 115.467 49.2667 112 54.6C108.533 59.8 103.667 63.9333 97.4 67ZM32.6 58H62.8C69.8667 58 75.2 56.6 78.8 53.8C82.4 50.8667 84.2 46.6 84.2 41C84.2 35.5333 82.3333 31.3333 78.6 28.4C75 25.4667 69.7333 24 62.8 24H32.6V58ZM68.2 116C83.4 116 91 110 91 98C91 86.4 83.4 80.6 68.2 80.6H32.6V116H68.2ZM251.623 86.6C251.623 87 251.423 89.8 251.023 95H169.623C171.09 101.667 174.557 106.933 180.023 110.8C185.49 114.667 192.29 116.6 200.423 116.6C206.023 116.6 210.957 115.8 215.223 114.2C219.623 112.467 223.69 109.8 227.423 106.2L244.023 124.2C233.89 135.8 219.09 141.6 199.623 141.6C187.49 141.6 176.757 139.267 167.423 134.6C158.09 129.8 150.89 123.2 145.823 114.8C140.757 106.4 138.223 96.8667 138.223 86.2C138.223 75.6667 140.69 66.2 145.623 57.8C150.69 49.2667 157.557 42.6667 166.223 38C175.023 33.2 184.823 30.8 195.623 30.8C206.157 30.8 215.69 33.0667 224.223 37.6C232.757 42.1333 239.423 48.6667 244.223 57.2C249.157 65.6 251.623 75.4 251.623 86.6ZM195.823 54.4C188.757 54.4 182.823 56.4 178.023 60.4C173.223 64.4 170.29 69.8667 169.223 76.8H222.223C221.157 70 218.223 64.6 213.423 60.6C208.623 56.4667 202.757 54.4 195.823 54.4ZM377.763 32.4V140H346.563V58H312.563L311.563 77C311.029 91.1333 309.696 102.867 307.563 112.2C305.429 121.533 301.963 128.867 297.163 134.2C292.363 139.533 285.696 142.2 277.163 142.2C272.629 142.2 267.229 141.4 260.963 139.8L262.563 114.2C264.696 114.467 266.229 114.6 267.163 114.6C271.829 114.6 275.296 112.933 277.563 109.6C279.963 106.133 281.563 101.8 282.363 96.6C283.163 91.2667 283.763 84.2667 284.163 75.6L285.763 32.4H377.763ZM458.166 141.6C446.832 141.6 436.632 139.267 427.566 134.6C418.632 129.8 411.632 123.2 406.566 114.8C401.499 106.4 398.966 96.8667 398.966 86.2C398.966 75.5333 401.499 66 406.566 57.6C411.632 49.2 418.632 42.6667 427.566 38C436.632 33.2 446.832 30.8 458.166 30.8C469.499 30.8 479.632 33.2 488.566 38C497.499 42.6667 504.499 49.2 509.566 57.6C514.632 66 517.166 75.5333 517.166 86.2C517.166 96.8667 514.632 106.4 509.566 114.8C504.499 123.2 497.499 129.8 488.566 134.6C479.632 139.267 469.499 141.6 458.166 141.6ZM458.166 116C466.166 116 472.699 113.333 477.766 108C482.966 102.533 485.566 95.2667 485.566 86.2C485.566 77.1333 482.966 69.9333 477.766 64.6C472.699 59.1333 466.166 56.4 458.166 56.4C450.166 56.4 443.566 59.1333 438.366 64.6C433.166 69.9333 430.566 77.1333 430.566 86.2C430.566 95.2667 433.166 102.533 438.366 108C443.566 113.333 450.166 116 458.166 116ZM645.625 32.4V140H614.425V58H569.625V140H538.625V32.4H645.625ZM738.939 30.8C748.939 30.8 758.006 33.1333 766.139 37.8C774.406 42.3333 780.872 48.8 785.539 57.2C790.206 65.4667 792.539 75.1333 792.539 86.2C792.539 97.2667 790.206 107 785.539 115.4C780.872 123.667 774.406 130.133 766.139 134.8C758.006 139.333 748.939 141.6 738.939 141.6C725.206 141.6 714.406 137.267 706.539 128.6V178.8H675.339V32.4H705.139V44.8C712.872 35.4667 724.139 30.8 738.939 30.8ZM733.539 116C741.539 116 748.072 113.333 753.139 108C758.339 102.533 760.939 95.2667 760.939 86.2C760.939 77.1333 758.339 69.9333 753.139 64.6C748.072 59.1333 741.539 56.4 733.539 56.4C725.539 56.4 718.939 59.1333 713.739 64.6C708.672 69.9333 706.139 77.1333 706.139 86.2C706.139 95.2667 708.672 102.533 713.739 108C718.939 113.333 725.539 116 733.539 116ZM864.806 141.6C853.473 141.6 843.273 139.267 834.206 134.6C825.273 129.8 818.273 123.2 813.206 114.8C808.14 106.4 805.606 96.8667 805.606 86.2C805.606 75.5333 808.14 66 813.206 57.6C818.273 49.2 825.273 42.6667 834.206 38C843.273 33.2 853.473 30.8 864.806 30.8C876.14 30.8 886.273 33.2 895.206 38C904.14 42.6667 911.14 49.2 916.206 57.6C921.273 66 923.806 75.5333 923.806 86.2C923.806 96.8667 921.273 106.4 916.206 114.8C911.14 123.2 904.14 129.8 895.206 134.6C886.273 139.267 876.14 141.6 864.806 141.6ZM864.806 116C872.806 116 879.34 113.333 884.406 108C889.606 102.533 892.206 95.2667 892.206 86.2C892.206 77.1333 889.606 69.9333 884.406 64.6C879.34 59.1333 872.806 56.4 864.806 56.4C856.806 56.4 850.206 59.1333 845.006 64.6C839.806 69.9333 837.206 77.1333 837.206 86.2C837.206 95.2667 839.806 102.533 845.006 108C850.206 113.333 856.806 116 864.806 116ZM1031.47 58H976.266V140H945.266V32.4H1031.47V58ZM1156.78 32.4L1108.18 146.6C1103.24 159 1097.11 167.733 1089.78 172.8C1082.58 177.867 1073.84 180.4 1063.58 180.4C1057.98 180.4 1052.44 179.533 1046.98 177.8C1041.51 176.067 1037.04 173.667 1033.58 170.6L1044.98 148.4C1047.38 150.533 1050.11 152.2 1053.18 153.4C1056.38 154.6 1059.51 155.2 1062.58 155.2C1066.84 155.2 1070.31 154.133 1072.98 152C1075.64 150 1078.04 146.6 1080.18 141.8L1080.58 140.8L1033.98 32.4H1066.18L1096.38 105.4L1126.78 32.4H1156.78ZM1267.41 32.4V140H1236.21V58H1202.21L1201.21 77C1200.68 91.1333 1199.34 102.867 1197.21 112.2C1195.08 121.533 1191.61 128.867 1186.81 134.2C1182.01 139.533 1175.34 142.2 1166.81 142.2C1162.28 142.2 1156.88 141.4 1150.61 139.8L1152.21 114.2C1154.34 114.467 1155.88 114.6 1156.81 114.6C1161.48 114.6 1164.94 112.933 1167.21 109.6C1169.61 106.133 1171.21 101.8 1172.01 96.6C1172.81 91.2667 1173.41 84.2667 1173.81 75.6L1175.41 32.4H1267.41ZM1344.81 99.2H1328.61V140H1297.41V32.4H1328.61V74.2H1345.41L1374.61 32.4H1407.81L1370.21 84L1410.41 140H1373.61L1344.81 99.2ZM1425.73 32.4H1456.73V96.4L1509.13 32.4H1537.73V140H1506.73V76L1454.53 140H1425.73V32.4Z" fill="#2F3035"/>
</svg>
