<svg width="24" height="24" viewBox="0 0 24 24" fill="none" xmlns="http://www.w3.org/2000/svg">
<path d="M17.792 7.21196C17.3476 5.30124 16.2167 3.62041 14.6141 2.48895C13.0116 1.35748 11.0492 0.854279 9.09993 1.07498C7.15067 1.29568 5.35045 2.22489 4.04145 3.686C2.73245 5.14712 2.00593 7.03826 1.99999 8.99996C1.99913 10.2784 2.30793 11.5379 2.89999 12.671C1.82112 13.2491 0.966391 14.1712 0.47161 15.2908C-0.0231703 16.4103 -0.129624 17.6631 0.169163 18.8501C0.46795 20.0371 1.15484 21.0902 2.1207 21.8421C3.08655 22.594 4.27598 23.0015 5.49999 23H16C17.9591 22.9909 19.8467 22.2632 21.305 20.955C22.7633 19.6468 23.6909 17.8489 23.9118 15.9023C24.1328 13.9557 23.6317 11.9957 22.5037 10.3939C21.3758 8.79209 19.6992 7.65989 17.792 7.21196ZM16 21H5.49999C4.64842 21.0025 3.82527 20.6937 3.18551 20.1317C2.54574 19.5696 2.13347 18.7931 2.02631 17.9483C1.91914 17.1035 2.12446 16.2486 2.60363 15.5447C3.08279 14.8407 3.80275 14.3361 4.62799 14.126C4.78654 14.085 4.93261 14.0058 5.05338 13.8952C5.17414 13.7847 5.26591 13.6461 5.32061 13.4918C5.37532 13.3374 5.39128 13.172 5.36711 13.0101C5.34294 12.8481 5.27938 12.6946 5.18199 12.563C4.41326 11.5343 3.99855 10.2842 3.99999 8.99996C4.0114 7.48595 4.59478 6.03222 5.63313 4.93032C6.67149 3.82841 8.08804 3.15981 9.59871 3.05859C11.1094 2.95738 12.6025 3.43103 13.7785 4.38456C14.9546 5.33809 15.7267 6.701 15.94 8.19996C15.9688 8.41762 16.0684 8.61975 16.2234 8.77518C16.3785 8.9306 16.5804 9.03068 16.798 9.05996C18.2968 9.2732 19.6596 10.0451 20.6131 11.221C21.5667 12.3969 22.0405 13.8897 21.9395 15.4003C21.8386 16.9108 21.1703 18.3273 20.0688 19.3658C18.9673 20.4044 17.5138 20.9881 16 21Z" fill="white"/>
</svg>
